<svg aria-hidden="true" style="position: absolute; width: 0; height: 0; overflow: hidden;" version="1.1" xmlns="http://www.w3.org/2000/svg" xmlns:xlink="http://www.w3.org/1999/xlink">
    <defs>
        <symbol id="icon-behance" viewBox="0 0 24 24">
            <path d="M0 4.4804V19.243h7.1554c.6613 0 1.3078-.0832 1.9297-.248.6288-.1654 1.1905-.4203 1.6792-.7661.485-.3431.8784-.788 1.1677-1.3369.2862-.542.4294-1.187.4294-1.9354 0-.9232-.219-1.7109-.6675-2.369-.446-.6542-1.1187-1.1139-2.0274-1.3746.6674-.3161 1.1658-.7227 1.506-1.2177.3371-.4967.5058-1.1174.5058-1.8607 0-.6873-.1127-1.2677-.3375-1.7318-.2306-.4709-.552-.8452-.9632-1.1266-.4176-.2808-.912-.4857-1.4912-.6085-.5827-.1261-1.22-.1872-1.9264-.1872zm15.6674.9903v1.4567h5.9844V5.4707zM3.2509 6.9947h3.0407c.2873 0 .5683.0204.8359.0731.2728.0466.508.134.716.2595.2096.1205.3754.293.501.5132.1208.2203.1806.5038.1806.8474 0 .6189-.1811 1.0702-.5551 1.3426-.3778.2775-.8543.4147-1.4304.4147H3.2509zm15.545 1.2564c-.819 0-1.5587.1462-2.2294.436-.6705.2904-1.2463.6875-1.7318 1.1915-.4846.5011-.8535 1.0986-1.12 1.7909-.2612.69-.3942 1.4366-.3942 2.236 0 .8268.1284 1.5891.3835 2.2786.258.6923.6198 1.2822 1.0856 1.781.478.4967 1.046.8784 1.726 1.1497.6806.269 1.4382.4048 2.2803.4048 1.208 0 2.2446-.2771 3.0949-.8326.8599-.5528 1.4902-1.471 1.9058-2.7574h-2.585c-.1.3307-.359.649-.784.9467-.4295.2988-.9417.4492-1.534.4492-.8233 0-1.4588-.2168-1.8985-.6462-.4412-.4294-.7267-1.2289-.7267-2.0742h7.713c.0552-.8291-.0122-1.6218-.2045-2.3797-.1938-.7601-.5033-1.4365-.9393-2.029-.4355-.5931-.9904-1.0667-1.667-1.4165-.6788-.3543-1.4703-.5288-2.3747-.5288zm-.0887 2.217c.7209 0 1.3126.2092 1.6612.5954.3503.389.6065.9432.6766 1.6915h-4.7766c.0136-.2085.058-.4444.1339-.7045.0749-.2668.2039-.5164.3933-.753.1905-.2326.4402-.431.744-.5896.3109-.1608.6986-.2397 1.1676-.2397zM3.251 12.664h3.5334c.6996 0 1.2682.1602 1.6948.4836.4259.328.6405.8685.6405 1.6292 0 .3885-.0632.7094-.1946.9566-.131.2495-.3106.4466-.528.5896-.2172.1491-.4753.2498-.7661.3137-.2862.0639-.5905.092-.9115.092H3.2509z"/>
        </symbol>
        <symbol id="icon-dribbble" viewBox="0 0 24 24">
            <path d="M12 24C5.385 24 0 18.615 0 12S5.385 0 12 0s12 5.385 12 12-5.385 12-12 12zm10.12-10.358c-.35-.11-3.17-.953-6.384-.438 1.34 3.684 1.887 6.684 1.992 7.308 2.3-1.555 3.936-4.02 4.395-6.87zm-6.115 7.808c-.153-.9-.75-4.032-2.19-7.77l-.066.02c-5.79 2.015-7.86 6.025-8.04 6.4 1.73 1.358 3.92 2.166 6.29 2.166 1.42 0 2.77-.29 4-.814zm-11.62-2.58c.232-.4 3.045-5.055 8.332-6.765.135-.045.27-.084.405-.12-.26-.585-.54-1.167-.832-1.74C7.17 11.775 2.206 11.71 1.756 11.7l-.004.312c0 2.633.998 5.037 2.634 6.855zm-2.42-8.955c.46.008 4.683.026 9.477-1.248-1.698-3.018-3.53-5.558-3.8-5.928-2.868 1.35-5.01 3.99-5.676 7.17zM9.6 2.052c.282.38 2.145 2.914 3.822 6 3.645-1.365 5.19-3.44 5.373-3.702-1.81-1.61-4.19-2.586-6.795-2.586-.825 0-1.63.1-2.4.285zm10.335 3.483c-.218.29-1.935 2.493-5.724 4.04.24.49.47.985.68 1.486.08.18.15.36.22.53 3.41-.43 6.8.26 7.14.33-.02-2.42-.88-4.64-2.31-6.38z"/>
        </symbol>
        <symbol id="icon-rss" viewBox="0 0 24 24">
            <path d="M19.199 24C19.199 13.467 10.533 4.8 0 4.8V0c13.165 0 24 10.835 24 24h-4.801zM3.291 17.415c1.814 0 3.293 1.479 3.293 3.295 0 1.813-1.485 3.29-3.301 3.29C1.47 24 0 22.526 0 20.71s1.475-3.294 3.291-3.295zM15.909 24h-4.665c0-6.169-5.075-11.245-11.244-11.245V8.09c8.727 0 15.909 7.184 15.909 15.91z"/>
        </symbol>
        <symbol id="icon-facebook" viewBox="0 0 32 32">
            <path d="M31.997 16c0-8.837-7.163-16-15.999-16s-15.999 7.163-15.999 16c0 7.984 5.851 14.603 13.499 15.803v-11.179h-4.061v-4.625h4.061v-3.524c0-4.011 2.389-6.225 6.043-6.225 1.751 0 3.581 0.312 3.581 0.312v3.937h-2.016c-1.987 0-2.607 1.233-2.607 2.499v3.003h4.437l-0.709 4.625h-3.728v11.179c7.648-1.2 13.499-7.819 13.499-15.804z"></path>
        </symbol>
        <symbol id="icon-github" viewBox="0 0 32 32">
            <path d="M16 0.396c-8.84 0-16 7.164-16 16 0 7.071 4.584 13.067 10.94 15.18 0.8 0.151 1.093-0.344 1.093-0.769 0-0.38-0.013-1.387-0.020-2.72-4.451 0.965-5.389-2.147-5.389-2.147-0.728-1.847-1.78-2.34-1.78-2.34-1.449-0.992 0.112-0.972 0.112-0.972 1.607 0.112 2.451 1.648 2.451 1.648 1.427 2.447 3.745 1.74 4.66 1.331 0.144-1.035 0.556-1.74 1.013-2.14-3.553-0.4-7.288-1.776-7.288-7.907 0-1.747 0.62-3.173 1.647-4.293-0.18-0.404-0.72-2.031 0.14-4.235 0 0 1.34-0.429 4.4 1.64 1.28-0.356 2.64-0.532 4-0.54 1.36 0.008 2.72 0.184 4 0.54 3.040-2.069 4.38-1.64 4.38-1.64 0.86 2.204 0.32 3.831 0.16 4.235 1.020 1.12 1.64 2.547 1.64 4.293 0 6.147-3.74 7.5-7.3 7.893 0.56 0.48 1.080 1.461 1.080 2.96 0 2.141-0.020 3.861-0.020 4.381 0 0.42 0.28 0.92 1.1 0.76 6.401-2.099 10.981-8.099 10.981-15.159 0-8.836-7.164-16-16-16z"></path>
        </symbol>
        <symbol id="icon-gitlab" viewBox="0 0 32 32">
            <path d="M6.459 1.205c-0.591 0.001-1.092 0.383-1.271 0.913l-0.003 0.009-3.373 10.377c0 0.009-0.007 0.016-0.009 0.027l-1.709 5.248c-0.060 0.177-0.094 0.381-0.094 0.593 0 0.635 0.309 1.198 0.785 1.546l0.005 0.004 14.763 10.727c0.123 0.090 0.277 0.144 0.443 0.144 0.17 0 0.326-0.056 0.452-0.15l-0.002 0.001 14.765-10.72c0.482-0.352 0.791-0.915 0.791-1.55 0-0.213-0.035-0.418-0.099-0.61l0.004 0.014-1.68-5.156c-0.010-0.053-0.025-0.099-0.043-0.143l0.002 0.005-3.368-10.367c-0.184-0.535-0.682-0.912-1.269-0.912-0.003 0-0.005 0-0.008 0h0c-0.003-0-0.007-0-0.010-0-0.585 0-1.082 0.382-1.252 0.911l-0.003 0.009-3.208 9.877h-10.131l-3.213-9.877c-0.173-0.538-0.67-0.92-1.255-0.92-0.001 0-0.002 0-0.002 0h-0.008zM6.451 3.099l2.899 8.904h-5.784l2.885-8.904zM25.555 3.099l2.891 8.904h-5.789l2.899-8.904zM11.429 13.512h9.149l-2.867 8.824-1.712 5.255-4.571-14.077zM4.076 13.519h5.763l4.115 12.667-9.877-12.667zM22.167 13.519h5.768l-9.883 12.669 4.115-12.669zM2.8 14.349l9.304 11.929-10.424-7.576c-0.103-0.075-0.169-0.195-0.169-0.33 0-0.045 0.007-0.087 0.020-0.128l-0.001 0.003 1.269-3.899zM29.2 14.349l1.269 3.896c0.013 0.038 0.020 0.081 0.020 0.126 0 0.134-0.065 0.254-0.166 0.328l-0.001 0.001v0.003l-10.427 7.573 0.033-0.047 9.271-11.88z"></path>
        </symbol>
        <symbol id="icon-instagram" viewBox="0 0 32 32">
            <path d="M16 0c-4.347 0-4.889 0.020-6.596 0.096-1.704 0.080-2.864 0.348-3.884 0.744-1.052 0.408-1.945 0.956-2.835 1.845s-1.439 1.781-1.845 2.835c-0.396 1.020-0.665 2.18-0.744 3.884-0.080 1.707-0.096 2.249-0.096 6.596s0.020 4.889 0.096 6.596c0.080 1.703 0.348 2.864 0.744 3.884 0.424 1.109 1.052 2.055 1.844 2.834l0.001 0.001c0.779 0.794 1.725 1.422 2.781 1.827l0.054 0.018c1.021 0.395 2.181 0.665 3.884 0.744 1.707 0.080 2.249 0.096 6.596 0.096s4.889-0.020 6.596-0.096c1.703-0.080 2.864-0.349 3.884-0.744 1.109-0.425 2.055-1.052 2.834-1.844l0.001-0.001c0.794-0.779 1.422-1.725 1.827-2.781l0.018-0.054c0.395-1.020 0.665-2.181 0.744-3.884 0.080-1.707 0.096-2.249 0.096-6.596s-0.020-4.889-0.096-6.596c-0.080-1.703-0.349-2.865-0.744-3.884-0.424-1.109-1.052-2.055-1.844-2.834l-0.001-0.001c-0.779-0.795-1.725-1.423-2.781-1.827l-0.053-0.018c-1.020-0.396-2.181-0.665-3.884-0.744-1.707-0.080-2.249-0.096-6.596-0.096zM16 2.88c4.271 0 4.78 0.021 6.467 0.095 1.56 0.073 2.407 0.332 2.969 0.553 0.749 0.289 1.28 0.636 1.843 1.195 0.559 0.56 0.905 1.092 1.195 1.841 0.219 0.563 0.48 1.409 0.551 2.969 0.076 1.688 0.093 2.195 0.093 6.467s-0.020 4.78-0.099 6.467c-0.081 1.56-0.341 2.407-0.561 2.969-0.275 0.721-0.683 1.336-1.198 1.842l-0.001 0.001c-0.505 0.517-1.119 0.923-1.806 1.183l-0.034 0.011c-0.56 0.219-1.42 0.48-2.98 0.551-1.699 0.076-2.199 0.093-6.479 0.093-4.281 0-4.781-0.020-6.479-0.099-1.561-0.081-2.421-0.341-2.981-0.561-0.721-0.271-1.335-0.68-1.837-1.197l-0.001-0.001c-0.522-0.502-0.932-1.117-1.189-1.806l-0.011-0.034c-0.22-0.56-0.479-1.42-0.56-2.98-0.060-1.68-0.081-2.199-0.081-6.459 0-4.261 0.021-4.781 0.081-6.481 0.081-1.56 0.34-2.419 0.56-2.979 0.28-0.76 0.639-1.28 1.2-1.841 0.559-0.559 1.080-0.919 1.839-1.197 0.56-0.221 1.401-0.481 2.961-0.561 1.7-0.060 2.2-0.080 6.479-0.080l0.060 0.040zM16 7.784c-4.538 0-8.216 3.678-8.216 8.216s3.678 8.216 8.216 8.216v0c4.538 0 8.216-3.678 8.216-8.216s-3.678-8.216-8.216-8.216v0zM16 21.333c-2.947 0-5.333-2.387-5.333-5.333s2.387-5.333 5.333-5.333 5.333 2.387 5.333 5.333-2.387 5.333-5.333 5.333zM26.461 7.46c-0.040 1.030-0.884 1.85-1.92 1.85s-1.88-0.82-1.92-1.846l-0-0.004c0-1.060 0.86-1.92 1.92-1.92s1.92 0.86 1.92 1.92v0z"></path>
        </symbol>
        <symbol id="icon-lanyrd" viewBox="0 0 32 32">
            <path d="M19.2 14.4v-9.6c0-1.767-1.433-3.2-3.2-3.2v0c-1.792 0-3.2 1.504-3.2 3.2v9.6c0 1.76 1.44 3.2 3.2 3.2 1.808 0 3.2-1.504 3.2-3.2zM25.6 14.4c0 4.752-3.456 8.688-8 9.456v3.344h3.2c0.896 0 1.6 0.72 1.6 1.6s-0.704 1.6-1.6 1.6h-9.6c-0.88 0-1.6-0.72-1.6-1.6s0.72-1.6 1.6-1.6h3.2v-3.344c-4.528-0.768-8-4.704-8-9.456 0-0.88 0.72-1.6 1.6-1.6 0.896 0 1.6 0.72 1.6 1.6 0 3.535 2.865 6.4 6.4 6.4s6.4-2.865 6.4-6.4v0c0-0.88 0.72-1.6 1.6-1.6 0.896 0 1.6 0.72 1.6 1.6z"></path>
        </symbol>
        <symbol id="icon-lastfm" viewBox="0 0 32 32">
            <path d="M14.132 22.948l-1.175-3.191s-1.911 2.128-4.772 2.128c-2.533 0-4.332-2.203-4.332-5.728 0-4.513 2.277-6.128 4.517-6.128 3.224 0 4.245 2.091 5.127 4.771l1.161 3.668c1.161 3.563 3.364 6.424 9.713 6.424 4.547 0 7.629-1.393 7.629-5.068 0-2.969-1.701-4.511-4.847-5.247l-2.343-0.512c-1.623-0.365-2.103-1.028-2.103-2.129 0-1.248 0.981-1.983 2.603-1.983 1.764 0 2.704 0.66 2.863 2.239l3.665-0.44c-0.3-3.305-2.583-4.659-6.327-4.659-3.305 0-6.529 1.248-6.529 5.245 0 2.497 1.203 4.077 4.247 4.807l2.483 0.591c1.863 0.44 2.484 1.221 2.484 2.284 0 1.361-1.323 1.921-3.825 1.921-3.705 0-5.248-1.943-6.129-4.625l-1.201-3.667c-1.541-4.765-4.005-6.528-8.892-6.528-5.287-0.019-8.149 3.384-8.149 9.192 0 5.572 2.863 8.593 8.004 8.593 4.144 0 6.128-1.943 6.128-1.943v-0.016z"></path>
        </symbol>
        <symbol id="icon-linkedin" viewBox="0 0 32 32">
            <path d="M27.263 27.269h-4.739v-7.425c0-1.771-0.036-4.049-2.469-4.049-2.471 0-2.848 1.927-2.848 3.919v7.556h-4.739v-15.269h4.552v2.081h0.061c0.636-1.2 2.183-2.467 4.493-2.467 4.801 0 5.689 3.16 5.689 7.273v8.381zM7.116 9.911c-0 0-0.001 0-0.001 0-1.518 0-2.749-1.231-2.749-2.749 0-0.001 0-0.003 0-0.004v0c0.001-1.519 1.233-2.751 2.752-2.751s2.752 1.232 2.752 2.752-1.232 2.752-2.752 2.752c-0 0-0.001 0-0.001 0h0zM9.492 27.269h-4.752v-15.269h4.752v15.269zM29.633 0h-27.272c-1.305 0-2.361 1.032-2.361 2.305v27.389c0 1.275 1.056 2.305 2.361 2.305h27.268c1.304 0 2.371-1.031 2.371-2.305v-27.389c0-1.273-1.067-2.305-2.371-2.305h0.004z"></path>
        </symbol>
        <symbol id="icon-mail" viewBox="0 0 32 32">
            <path d="M15.447 7.023c2.445 0 4.744 1.081 6.432 2.773v0.005c0-0.812 0.547-1.424 1.305-1.424h0.193c1.188 0 1.431 1.123 1.431 1.479l0.007 12.633c-0.084 0.828 0.853 1.255 1.372 0.724 2.028-2.085 4.456-10.717-1.261-15.72-5.328-4.663-12.476-3.895-16.279-1.273-4.041 2.788-6.628 8.957-4.115 14.752 2.739 6.32 10.575 8.203 15.232 6.325 2.359-0.953 3.448 2.235 0.999 3.276-3.701 1.579-14.003 1.419-18.813-6.917-3.252-5.628-3.079-15.532 5.544-20.663 6.596-3.924 15.293-2.837 20.536 2.639 5.481 5.725 5.163 16.445-0.185 20.615-2.421 1.893-6.021 0.049-5.997-2.708l-0.025-0.904c-1.687 1.675-3.931 2.651-6.376 2.651-4.833 0-9.084-4.252-9.084-9.083 0-4.879 4.252-9.18 9.085-9.18zM21.528 15.853c-0.183-3.537-2.808-5.665-5.979-5.665h-0.12c-3.66 0-5.691 2.879-5.691 6.147 0 3.663 2.456 5.975 5.675 5.975 3.591 0 5.952-2.631 6.123-5.741l-0.008-0.715z"></path>
        </symbol>
        <symbol id="icon-medium" viewBox="0 0 32 32">
            <path d="M0 0v32h32v-32h-32zM26.584 7.581l-1.716 1.645c-0.121 0.092-0.198 0.237-0.198 0.399 0 0.030 0.003 0.059 0.007 0.087l-0-0.003v12.089c-0.004 0.025-0.007 0.053-0.007 0.083 0 0.162 0.077 0.306 0.196 0.398l0.001 0.001 1.676 1.645v0.361h-8.429v-0.36l1.736-1.687c0.171-0.171 0.171-0.22 0.171-0.48v-9.773l-4.827 12.26h-0.653l-5.621-12.26v8.217c-0.007 0.046-0.010 0.099-0.010 0.152 0 0.307 0.122 0.586 0.321 0.791l-0-0 2.259 2.739v0.361h-6.403v-0.36l2.26-2.74c0.189-0.196 0.306-0.464 0.306-0.759 0-0.065-0.006-0.129-0.017-0.19l0.001 0.007v-9.501c0.003-0.025 0.004-0.055 0.004-0.085 0-0.245-0.106-0.465-0.274-0.617l-0.001-0.001-2.008-2.419v-0.36h6.232l4.817 10.564 4.235-10.565h5.941v0.361z"></path>
        </symbol>
        <symbol id="icon-pinterest" viewBox="0 0 32 32">
            <path d="M16.023 0c-8.828 0-15.984 7.156-15.984 15.983 0 6.772 4.211 12.556 10.157 14.883-0.14-1.265-0.265-3.204 0.055-4.585 0.292-1.249 1.875-7.943 1.875-7.943s-0.479-0.96-0.479-2.375c0-2.217 1.289-3.881 2.891-3.881 1.365 0 2.024 1.025 2.024 2.251 0 1.372-0.871 3.423-1.323 5.323-0.38 1.591 0.8 2.887 2.367 2.887 2.837 0 5.024-2.993 5.024-7.316 0-3.815-2.751-6.492-6.677-6.492-4.547 0-7.212 3.416-7.212 6.932 0 1.377 0.525 2.857 1.185 3.655 0.132 0.16 0.149 0.3 0.113 0.46-0.12 0.5-0.391 1.599-0.445 1.817-0.071 0.3-0.229 0.361-0.535 0.22-1.993-0.92-3.244-3.837-3.244-6.195 0-5.035 3.664-9.669 10.56-9.669 5.544 0 9.856 3.956 9.856 9.231 0 5.513-3.476 9.949-8.311 9.949-1.619 0-3.139-0.839-3.677-1.839l-0.999 3.797c-0.359 1.393-1.339 3.136-1.997 4.195 1.497 0.46 3.075 0.713 4.733 0.713 8.809 0 15.98-7.153 15.98-15.983 0-8.831-7.171-15.983-15.98-15.983l0.043-0.035z"></path>
        </symbol>
        <symbol id="icon-quora" viewBox="0 0 32 32">
            <path d="M16.984 24.935c-1.108-2.18-2.407-4.383-4.944-4.383-0.015-0-0.032-0-0.049-0-0.492 0-0.961 0.103-1.385 0.288l0.022-0.009-0.861-1.719c1.048-0.904 2.744-1.619 4.924-1.619 3.392 0 5.135 1.639 6.517 3.723 0.817-1.78 1.205-4.187 1.205-7.167 0-7.443-2.325-11.263-7.763-11.263-5.357 0-7.676 3.82-7.676 11.263 0 7.404 2.319 11.185 7.676 11.185 0.853 0 1.627-0.092 2.333-0.3zM18.312 27.531c-1.175 0.316-2.423 0.488-3.657 0.488-7.136 0-14.12-5.692-14.12-13.971 0.001-8.353 6.984-14.048 14.12-14.048 7.255 0 14.171 5.651 14.171 14.049 0 4.672-2.18 8.468-5.347 10.921 1.019 1.531 2.057 2.552 3.536 2.552 1.599 0 2.24-1.22 2.36-2.199h2.076c0.123 1.299-0.536 6.676-6.355 6.676-3.536 0-5.396-2.037-6.795-4.437l0.011-0.032z"></path>
        </symbol>
        <symbol id="icon-reddit" viewBox="0 0 32 32">
            <path d="M16 0c-8.837 0-16 7.163-16 16v0c0 8.837 7.163 16 16 16v0c8.837 0 16-7.163 16-16v0c0-8.837-7.163-16-16-16v0zM22.68 6.325c0.917 0 1.667 0.748 1.667 1.665-0.010 0.913-0.752 1.649-1.667 1.649-0.888 0-1.614-0.694-1.664-1.57l-0-0.004-3.463-0.729-1.067 4.996c2.432 0.093 4.64 0.843 6.232 1.984 0.411-0.412 0.973-0.655 1.609-0.655 1.291 0 2.339 1.048 2.339 2.339 0 0.955-0.58 1.777-1.347 2.152 0.036 0.204 0.056 0.439 0.056 0.679 0 0.005 0 0.010-0 0.015v-0.001c0 3.592-4.173 6.493-9.339 6.493s-9.339-2.901-9.339-6.493c0-0.244 0.020-0.488 0.057-0.712-0.823-0.372-1.385-1.185-1.385-2.13 0-0.001 0-0.002 0-0.003v0c0-1.291 1.048-2.339 2.339-2.339 0.617 0 1.197 0.261 1.609 0.653 1.609-1.177 3.837-1.907 6.325-1.983l1.18-5.576c0.029-0.11 0.096-0.201 0.185-0.262l0.002-0.001c0.067-0.040 0.148-0.063 0.235-0.063 0.029 0 0.058 0.003 0.085 0.008l-0.003-0 3.875 0.823c0.264-0.557 0.821-0.935 1.467-0.935 0.004 0 0.007 0 0.011 0h-0.001zM12.333 16c-0.919 0-1.667 0.749-1.667 1.667 0 0.916 0.748 1.664 1.667 1.664 0.916 0 1.664-0.748 1.664-1.665s-0.748-1.665-1.665-1.665zM19.667 16c-0.916 0-1.664 0.748-1.664 1.667 0 0.916 0.748 1.664 1.665 1.664s1.665-0.748 1.665-1.665c0-0.916-0.749-1.665-1.667-1.665zM12.379 21.32c-0.001 0-0.001 0-0.002 0-0.119 0-0.227 0.048-0.306 0.125l0-0c-0.078 0.079-0.126 0.188-0.126 0.309s0.048 0.229 0.127 0.309l-0-0c1.123 1.123 3.312 1.217 3.948 1.217s2.807-0.075 3.948-1.217c0.082-0.086 0.133-0.203 0.133-0.332 0-0.108-0.035-0.207-0.095-0.287l0.001 0.001c-0.079-0.079-0.189-0.127-0.309-0.127s-0.23 0.049-0.309 0.127l0-0c-0.729 0.711-2.245 0.973-3.349 0.973s-2.639-0.261-3.349-0.973c-0.079-0.078-0.187-0.127-0.307-0.127-0.001 0-0.002 0-0.003 0h0z"></path>
        </symbol>
        <symbol id="icon-spotify" viewBox="0 0 32 32">
            <path d="M16 0c-8.8 0-16 7.2-16 16s7.2 16 16 16 16-7.2 16-16-7.12-16-16-16zM23.361 23.12c-0.32 0.479-0.88 0.64-1.361 0.32-3.76-2.32-8.48-2.801-14.081-1.521-0.557 0.163-1.039-0.239-1.199-0.719-0.16-0.561 0.24-1.040 0.72-1.2 6.080-1.361 11.36-0.8 15.52 1.76 0.56 0.24 0.639 0.879 0.401 1.36zM25.281 18.72c-0.401 0.56-1.121 0.8-1.683 0.4-4.319-2.64-10.879-3.44-15.919-1.84-0.639 0.16-1.36-0.16-1.52-0.8s0.16-1.361 0.8-1.521c5.84-1.759 13.040-0.877 18 2.161 0.481 0.241 0.72 1.040 0.321 1.6zM25.441 14.24c-5.121-3.040-13.681-3.36-18.561-1.839-0.8 0.239-1.6-0.241-1.84-0.961-0.24-0.801 0.24-1.6 0.96-1.841 5.68-1.68 15.040-1.36 20.961 2.161 0.719 0.4 0.959 1.36 0.559 2.080-0.399 0.561-1.36 0.799-2.079 0.4z"></path>
        </symbol>
        <symbol id="icon-stackoverflow" viewBox="0 0 32 32">
            <path d="M25.315 29.153v-8.539h2.845v11.385h-25.701v-11.385h2.84v8.539h20.016zM8.148 26.308h14.319v-2.849h-14.319v2.849zM8.493 19.839l13.973 2.919 0.601-2.76-13.971-2.916-0.604 2.757zM10.305 13.097l12.94 6.040 1.204-2.6-12.941-6.040-1.203 2.581v0.019zM13.925 6.717l10.956 9.14 1.812-2.16-10.955-9.137-1.8 2.156-0.013 0.001zM21.001 0l-2.328 1.725 8.54 11.472 2.328-1.725-8.54-11.472z"></path>
        </symbol>
        <symbol id="icon-twitter" viewBox="0 0 32 32">
            <path d="M31.939 6.092c-1.096 0.496-2.368 0.86-3.701 1.027l-0.065 0.007c1.355-0.824 2.374-2.085 2.871-3.584l0.013-0.047c-1.268 0.74-2.673 1.279-4.169 1.579-1.2-1.281-2.903-2.079-4.791-2.079-3.623 0-6.56 2.937-6.56 6.56 0 0.53 0.063 1.046 0.182 1.54l-0.009-0.045c-5.453-0.257-10.287-2.876-13.521-6.835-0.558 0.933-0.888 2.058-0.888 3.261 0 0.014 0 0.028 0 0.042v-0.002c0 2.28 1.16 4.284 2.917 5.461-1.096-0.036-2.114-0.336-3.003-0.838l0.033 0.017v0.081c0 0.001 0 0.002 0 0.003 0 3.164 2.239 5.805 5.219 6.426l0.043 0.007c-0.517 0.144-1.111 0.227-1.724 0.227-0.433 0-0.857-0.041-1.267-0.12l0.042 0.007c0.869 2.627 3.278 4.5 6.132 4.556l0.007 0c-2.213 1.75-5.045 2.807-8.123 2.807-0.005 0-0.009 0-0.014 0h0.001c-0.52 0-1.039-0.031-1.56-0.089 2.846 1.847 6.326 2.945 10.062 2.945 0.005 0 0.010 0 0.015 0h-0.001c12.072 0 18.665-9.995 18.665-18.648 0-0.279 0-0.56-0.020-0.84 1.293-0.938 2.382-2.064 3.25-3.35l0.030-0.047-0.063-0.027z"></path>
        </symbol>
        <symbol id="icon-vimeo" viewBox="0 0 32 32">
            <path d="M31.969 8.555c-0.14 3.117-2.319 7.391-6.525 12.812-4.357 5.663-8.035 8.493-11.053 8.493-1.879 0-3.437-1.725-4.737-5.175l-2.557-9.485c-0.959-3.445-1.984-5.171-3.083-5.171-0.239 0-1.075 0.504-2.508 1.509l-1.505-1.943c1.981-1.742 3.5-3.104 5.010-4.477l-0.342 0.306c2.105-1.824 3.687-2.78 4.739-2.879 2.489-0.24 4.021 1.467 4.596 5.117 0.62 3.937 1.052 6.385 1.295 7.343 0.719 3.267 1.508 4.899 2.368 4.899 0.669 0 1.675-1.061 3.020-3.18 1.339-2.119 2.053-3.729 2.149-4.837 0.192-1.828-0.527-2.748-2.152-2.748-0.765 0-1.556 0.161-2.369 0.521 1.581-5.157 4.579-7.676 9.016-7.516 3.297 0.080 4.837 2.219 4.657 6.396l-0.017 0.013z"></path>
        </symbol>
        <symbol id="icon-youtube" viewBox="0 0 32 32">
            <path d="M31.327 8.273c-0.386-1.353-1.431-2.398-2.756-2.777l-0.028-0.007c-2.493-0.668-12.528-0.668-12.528-0.668s-10.009-0.013-12.528 0.668c-1.353 0.386-2.398 1.431-2.777 2.756l-0.007 0.028c-0.443 2.281-0.696 4.903-0.696 7.585 0 0.054 0 0.109 0 0.163l-0-0.008c-0 0.037-0 0.082-0 0.126 0 2.682 0.253 5.304 0.737 7.845l-0.041-0.26c0.386 1.353 1.431 2.398 2.756 2.777l0.028 0.007c2.491 0.669 12.528 0.669 12.528 0.669s10.008 0 12.528-0.669c1.353-0.386 2.398-1.431 2.777-2.756l0.007-0.028c0.425-2.233 0.668-4.803 0.668-7.429 0-0.099-0-0.198-0.001-0.297l0 0.015c0.001-0.092 0.001-0.201 0.001-0.31 0-2.626-0.243-5.196-0.708-7.687l0.040 0.258zM12.812 20.801v-9.591l8.352 4.803z"></path>
        </symbol>
    </defs>
</svg>
