<svg width="18" height="15" viewBox="0 0 18 15" fill="none" xmlns="http://www.w3.org/2000/svg">
<path d="M18 1.6875C17.325 2.025 16.65 2.1375 15.8625 2.25C16.65 1.8 17.2125 1.125 17.4375 0.225C16.7625 0.675 15.975 0.9 15.075 1.125C14.4 0.45 13.3875 0 12.375 0C10.4625 0 8.775 1.6875 8.775 3.7125C8.775 4.05 8.775 4.275 8.8875 4.5C5.85 4.3875 3.0375 2.925 1.2375 0.675C0.9 1.2375 0.7875 1.8 0.7875 2.5875C0.7875 3.825 1.4625 4.95 2.475 5.625C1.9125 5.625 1.35 5.4 0.7875 5.175C0.7875 6.975 2.025 8.4375 3.7125 8.775C3.375 8.8875 3.0375 8.8875 2.7 8.8875C2.475 8.8875 2.25 8.8875 2.025 8.775C2.475 10.2375 3.825 11.3625 5.5125 11.3625C4.275 12.375 2.7 12.9375 0.9 12.9375C0.5625 12.9375 0.3375 12.9375 0 12.9375C1.6875 13.95 3.6 14.625 5.625 14.625C12.375 14.625 16.0875 9 16.0875 4.1625C16.0875 4.05 16.0875 3.825 16.0875 3.7125C16.875 3.15 17.55 2.475 18 1.6875Z" fill="#1A1A1A"/>
</svg>
